<svg width="150" height="36" xmlns="http://www.w3.org/2000/svg">

 <g>
  <title>background</title>
  <rect fill="none" id="canvas_background" height="402" width="582" y="-1" x="-1"/>
 </g>
 <g>
  <title>Layer 1</title>
  <g id="Group 2">
   <g id="flex">
    <path fill="white" d="m0,18.1065c0,9.8346 8.05887,17.8935 18.1065,17.8935c9.8346,0 17.8935,-8.0589 17.8935,-17.8935c0,-10.04763 -8.0589,-18.1065 -17.8935,-18.1065c-10.04763,0 -18.1065,8.05887 -18.1065,18.1065zm33.7263,0c0,8.5789 -7.0409,15.6198 -15.6198,15.6198c-8.76297,0 -15.83282,-7.0123 -15.83282,-15.6198c0,-8.7919 7.04092,-15.83282 15.83282,-15.83282c8.6075,0 15.6198,7.06985 15.6198,15.83282z" clip-rule="evenodd" fill-rule="evenodd" id="Combined Shape"/>
    <path fill="white" d="m16.4288,13.5917c0.2819,-0.2327 0.6361,-0.3599 1.0017,-0.3599c0.3617,0 0.7124,0.1246 0.993,0.3528l4.21,3.4236c0.3739,0.3041 0.8821,0.3841 1.3313,0.2098l1.9854,-0.7706c0.179,-0.0695 0.38,-0.0438 0.5349,0.0696c0.5937,0.4346 2.09,1.5327 2.6438,1.965c1.3572,1.0596 2.3571,1.768 2.3571,1.768c0,0 -0.0174,-0.3899 0,-0.8099c0.36,-8.7221 -6.2536,-15.04993 -13.6838,-14.93866c-7.4219,0.11424 -13.42088,6.06476 -13.30042,14.33396c0.01131,0.6965 0.11752,1.4146 0.11752,1.4146l1.89023,-1.4146l2.29669,-1.6548c0.3162,-0.2278 0.73891,-0.2413 1.06903,-0.0342l0.92385,0.5797c0.2097,0.1316 0.4802,0.1141 0.6712,-0.0435l4.9585,-4.0909z" clip-rule="evenodd" fill-rule="evenodd" id="Oval 3"/>
    <path fill="white" d="m16.6359,34.7904c2.1836,0.2533 3.9828,-0.126 4.6078,-0.3044c0.2851,-0.0814 1.3504,-0.342 1.6015,-0.4264c0.8411,-0.2826 2.1247,-0.8814 2.8561,-1.3178c1.0944,-0.6531 1.8672,-1.3411 2.9375,-2.3064c2.3762,-2.143 3.9862,-6.1105 3.9862,-6.5154c0,-0.0913 -4.4104,-3.4132 -5.7059,-4.3871c-0.204,-0.1533 -0.4873,-0.1297 -0.6661,0.0524c-0.1687,0.1718 -0.1947,0.4373 -0.0619,0.6381c0.4432,0.6706 1.3832,2.1012 1.4284,2.2383c0.1725,0.5232 -0.073,0.8187 -0.3186,0.6614c-0.2456,-0.1573 -5.7363,-3.8559 -5.7363,-3.8559l-3.2844,-2.2709c-0.4116,-0.2846 -0.9734,0.01 -0.9734,0.5103c0,0 -0.1111,1.61 -0.1111,2.661c0,0.4265 -0.0439,0.9442 -0.5598,1.0784c-0.2585,0.0672 -0.9125,0.1067 -0.9125,0.1067l-5.5483,-0.4193c-0.37659,-0.0284 -0.58774,0.4246 -0.32382,0.6947c0,0 7.34442,4.9568 7.34442,5.3603c0,0.8576 -2.6437,-0.5166 -4.7184,-1.5245c-2.52522,-1.2267 -5.33089,-2.3298 -6.02996,-2.6006c-0.10492,-0.0406 -0.21947,-0.0317 -0.31701,0.0244c-0.60136,0.3458 -2.77339,1.5992 -2.75518,1.653c0.71265,2.103 2.60291,5.1828 5.46675,7.2338c1.1451,0.8201 2.466,1.5861 3.752,2.062c1.4706,0.5441 3.0125,0.9539 4.042,0.9539z" clip-rule="evenodd" fill-rule="evenodd" id="Oval 4"/>
   </g>
   <text xml:space="preserve" text-anchor="start" font-family="Helvetica, Arial, sans-serif" font-size="24" id="svg_1" y="5.293957" x="41.598492" fill-opacity="null" stroke-opacity="null" stroke-width="0" stroke="null" fill="#000000"/>
   <text xml:space="preserve" text-anchor="start" font-family="'Palatino Linotype', 'Book Antiqua', Palatino, serif" font-size="24" id="svg_6" y="25.963192" x="40.354391" stroke-opacity="null" stroke-width="0" stroke="null" fill="#ffffff">Workshop</text>
  </g>
 </g>
</svg>